<?xml version="1.0" encoding="utf-8"?>
<!-- Generator: Adobe Illustrator 21.0.0, SVG Export Plug-In . SVG Version: 6.00 Build 0)  -->
<svg version="1.1" xmlns="http://www.w3.org/2000/svg" xmlns:xlink="http://www.w3.org/1999/xlink" x="0px" y="0px"
	 viewBox="0 0 512 512" style="enable-background:new 0 0 512 512;" xml:space="preserve">
<style type="text/css">
	.st0{fill:#349980;}
	.st1{opacity:0.66;fill:#01A0C6;}
	.st2{opacity:0.66;fill:#FF0000;}
	.st3{stroke:#000000;stroke-miterlimit:10;}
</style>
<!--<g id="Layer_5">
	<path class="st0" d="M378.2,213.5c-9.3,44.4-25.4,120.1-29.6,139.7c22.2-26.2,35.7-60.1,35.7-97.2
		C384.3,241.3,382.2,227,378.2,213.5z"/>
</g>-->
<!--<g id="Layer_3">
	<path class="st1" d="M276.7,37c-7.2,0-14.3,0.3-21.3,1C144.4,48.8,57.7,142.3,57.7,256s86.7,207.3,197.7,218c7,0.7,14.1,1,21.3,1
		c120.9,0,219-98,219-219S397.6,37,276.7,37z M384.7,182.1c-0.8,4.1-3.2,15.8-6.5,31.4c-9.3,44.4-25.4,120.1-29.6,139.7
		c-0.6,3-1,4.7-1,4.7s-4.5,12.7-14.2,10.7c-26.5,23.4-61.3,37.6-99.5,37.6C151,406.3,83.7,339,83.7,256S151,105.7,234,105.7
		c49.3,0,93.1,23.8,120.5,60.5c1.2-0.7,2.4-1,3.6-1.4c2.2-0.6,4.3,0.4,5.5,2.1c2,0.7,3.7,2.1,4.7,4c2.5-0.9,3.8-1.4,3.8-1.4
		S388.2,164.5,384.7,182.1z"/>
</g>-->
<!--<g id="Layer_4">
	<path class="st2" d="M255.3,38c-7-0.7-14.1-1-21.3-1C113,37,15,135,15,256s98,219,219,219c7.2,0,14.3-0.4,21.3-1
		C366.3,463.3,453,369.8,453,256S366.3,48.8,255.3,38z M384.7,182.1c-0.8,4.1-3.2,15.8-6.5,31.4c-9.3,44.4-25.4,120.1-29.6,139.7
		c-4.7,5.5-9.7,10.7-15.2,15.5c-26.5,23.4-61.3,37.6-99.5,37.6C151,406.3,83.7,339,83.7,256S151,105.7,234,105.7
		c49.3,0,93.1,23.8,120.5,60.5c1.2-0.7,2.4-1,3.6-1.4c2.2-0.6,4.3,0.4,5.5,2.1c2,0.7,3.7,2.1,4.7,4c2.5-0.9,3.8-1.4,3.8-1.4
		S388.2,164.5,384.7,182.1z"/>
</g>-->
<g id="Layer_2">
	<path class="st3" d="M256,37C135.1,37,37,135.1,37,256s98.1,219,219,219s219-98.1,219-219S376.9,37,256,37z M364.1,182.1
		c-3.4,17.7-37.1,175.8-37.1,175.8s-6.8,19.3-21.7,6.7c-14.8-12.5-51.9-38.8-51.9-38.8l-32.5,31.9c0,0-9.1,1.7-12-6.8
		s-21.1-64.4-21.1-64.4l-54.2-18.8c0,0-16-7.4,0-17.1c16-9.7,217.9-81,217.9-81S367.5,164.5,364.1,182.1z"/>
</g>
</svg>
